<svg width="182" height="182" viewBox="0 0 182 182" fill="none" xmlns="http://www.w3.org/2000/svg">
<g clip-path="url(#clip0_2_162)">
<path fill-rule="evenodd" clip-rule="evenodd" d="M80.645 73.4896C79.0819 70.2856 76.4295 67.7723 72.4302 66.3894C60.0585 62.1121 50.2183 67.1903 42.9058 76.3013C32.2289 89.6053 27.035 111.621 27.2079 124.519C27.2154 125.13 27.7181 125.617 28.3267 125.607C28.9376 125.6 29.4267 125.099 29.4193 124.488C29.2506 111.969 34.2692 90.596 44.6304 77.6836C51.345 69.318 60.3456 64.5501 71.7082 68.4802C75.0908 69.6475 77.322 71.7761 78.6506 74.4817C76.8959 75.3772 75.1895 76.3104 73.5355 77.2809C68.9703 79.9609 58.5631 89.0122 53.8421 97.7501C50.4572 104.019 49.9944 110.119 55.7227 113.962C58.9072 116.097 62.5503 115.755 66.1328 113.64C71.0599 110.735 75.906 104.364 79.0049 97.1633C81.586 91.1686 82.9579 84.6126 82.246 79.0538C82.0871 77.8324 81.8339 76.6569 81.4712 75.5441C106.044 63.5865 138.882 59.4086 164.748 66.1806C165.338 66.3327 165.943 65.9822 166.096 65.39C166.252 64.7994 165.898 64.1953 165.31 64.0409C139.021 57.1604 105.664 61.3703 80.645 73.4896ZM79.4609 76.5489C77.8137 77.3941 76.2104 78.274 74.6548 79.1877C70.281 81.7573 60.3113 90.4283 55.7884 98.8006C53.0121 103.938 52.2595 108.977 56.9542 112.127C59.4208 113.779 62.2345 113.372 65.0103 111.738C68.0619 109.936 71.0496 106.683 73.5663 102.74C77.3871 96.7533 80.1134 89.1716 80.219 82.5101C80.2535 80.3997 80.0197 78.3827 79.4609 76.5489Z" fill="black"/>
<path fill-rule="evenodd" clip-rule="evenodd" d="M127.684 84.238C137.026 74.9292 151.967 68.5645 164.983 66.0529C165.582 65.9375 165.974 65.357 165.858 64.7584C165.743 64.1598 165.164 63.7658 164.565 63.8812C151.142 66.4697 135.756 73.0759 126.125 82.6718C125.693 83.101 125.692 83.8014 126.123 84.2344C126.553 84.6658 127.253 84.6672 127.684 84.238Z" fill="black"/>
<path fill-rule="evenodd" clip-rule="evenodd" d="M164.584 63.6086C153.658 62.5272 141.299 54.6729 134.204 46.2506C133.811 45.7831 133.112 45.7215 132.647 46.1164C132.179 46.5097 132.119 47.206 132.513 47.6734C139.945 56.4966 152.92 64.6748 164.367 65.8079C164.973 65.8692 165.516 65.4232 165.577 64.8167C165.636 64.2086 165.192 63.6676 164.584 63.6086Z" fill="black"/>
</g>
<defs>
<clipPath id="clip0_2_162">
<rect width="130" height="130" fill="white" transform="translate(75.275) rotate(35.383)"/>
</clipPath>
</defs>
</svg>
